<svg xmlns="http://www.w3.org/2000/svg" xmlns:xlink="http://www.w3.org/1999/xlink" width="165" zoomAndPan="magnify" viewBox="0 0 123.75 35.25" height="47" preserveAspectRatio="xMidYMid meet" version="1.0"><defs><g/><clipPath id="b7f19f6adc"><path d="M 4.617188 5.175781 L 35.460938 5.175781 L 35.460938 29.410156 L 4.617188 29.410156 Z M 4.617188 5.175781 " clip-rule="nonzero"/></clipPath></defs><g clip-path="url(#b7f19f6adc)"><path fill="#72569d" d="M 18.660156 10.414062 C 18.964844 9.816406 19.179688 9.34375 19.441406 8.898438 C 20.464844 7.160156 21.851562 5.863281 23.90625 5.527344 C 25.582031 5.253906 27.203125 5.539062 28.714844 6.335938 C 30.710938 7.394531 31.855469 9.09375 32.308594 11.261719 C 32.671875 12.996094 32.472656 14.703125 31.917969 16.375 C 31.855469 16.5625 31.773438 16.742188 31.6875 16.953125 C 29.246094 16.953125 26.820312 16.953125 24.308594 16.953125 C 24.132812 16.632812 23.929688 16.265625 23.738281 15.894531 C 23.460938 15.359375 23.1875 14.824219 22.929688 14.28125 C 22.710938 13.820312 22.410156 13.453125 21.859375 13.488281 C 21.328125 13.519531 21.046875 13.882812 20.871094 14.378906 C 20.378906 15.746094 19.851562 17.097656 19.339844 18.457031 C 19.296875 18.574219 19.246094 18.6875 19.15625 18.894531 C 19.050781 18.691406 18.960938 18.566406 18.914062 18.421875 C 18.296875 16.570312 17.683594 14.71875 17.070312 12.863281 C 17.03125 12.746094 17.003906 12.621094 16.957031 12.507812 C 16.785156 12.078125 16.488281 11.777344 16.007812 11.773438 C 15.539062 11.769531 15.207031 12.015625 15.027344 12.460938 C 14.578125 13.574219 14.128906 14.6875 13.675781 15.800781 C 13.527344 16.171875 13.367188 16.539062 13.175781 16.992188 C 12.894531 16.992188 12.597656 16.992188 12.304688 16.992188 C 11.578125 16.992188 10.847656 16.972656 10.125 17.003906 C 9.542969 17.027344 9.183594 17.421875 9.167969 17.960938 C 9.15625 18.472656 9.472656 18.875 9.988281 18.976562 C 10.132812 19.007812 10.289062 19.003906 10.4375 19.003906 C 11.515625 19.003906 12.59375 18.988281 13.671875 19.011719 C 14.3125 19.023438 14.703125 18.742188 14.925781 18.152344 C 15.207031 17.40625 15.523438 16.671875 15.878906 15.792969 C 16.035156 16.234375 16.152344 16.546875 16.257812 16.863281 C 16.855469 18.667969 17.453125 20.476562 18.042969 22.285156 C 18.195312 22.746094 18.441406 23.089844 18.980469 23.117188 C 19.507812 23.148438 19.832031 22.941406 20.050781 22.371094 C 20.464844 21.296875 20.863281 20.214844 21.265625 19.136719 C 21.511719 18.480469 21.757812 17.824219 22.042969 17.058594 C 22.246094 17.453125 22.429688 17.742188 22.546875 18.054688 C 22.8125 18.765625 23.300781 19.023438 24.054688 19.015625 C 27.488281 18.988281 30.921875 19.003906 34.355469 19.003906 C 34.605469 19.003906 34.859375 18.992188 35.105469 19.023438 C 35.496094 19.074219 35.765625 19.382812 35.769531 19.726562 C 35.769531 20.066406 35.503906 20.382812 35.121094 20.445312 C 34.925781 20.480469 34.71875 20.464844 34.519531 20.464844 C 33.089844 20.46875 31.664062 20.472656 30.234375 20.464844 C 29.914062 20.460938 29.675781 20.535156 29.460938 20.808594 C 27.191406 23.710938 24.34375 25.941406 21.25 27.886719 C 20.550781 28.324219 19.820312 28.71875 19.109375 29.140625 C 18.828125 29.308594 18.574219 29.332031 18.273438 29.164062 C 14.457031 27.039062 10.9375 24.542969 8.140625 21.136719 C 6.679688 19.355469 5.550781 17.386719 5.082031 15.097656 C 4.628906 12.863281 4.808594 10.691406 6.050781 8.722656 C 7.3125 6.71875 9.222656 5.722656 11.542969 5.480469 C 14.417969 5.175781 16.460938 6.460938 17.894531 8.871094 C 18.035156 9.105469 18.15625 9.355469 18.277344 9.601562 C 18.386719 9.824219 18.488281 10.050781 18.660156 10.414062 Z M 18.660156 10.414062 " fill-opacity="1" fill-rule="nonzero"/></g><g fill="#72569d" fill-opacity="1"><g transform="translate(34.020767, 17.293289)"><g><path d="M 4.734375 -8.046875 L 6.671875 -8.046875 L 6.671875 0 L 4.734375 0 L 4.734375 -3.15625 L 2.296875 -3.15625 L 2.296875 0 L 0.375 0 L 0.375 -8.046875 L 2.296875 -8.046875 L 2.296875 -4.890625 L 4.734375 -4.890625 Z M 4.734375 -8.046875 "/></g></g></g><g fill="#72569d" fill-opacity="1"><g transform="translate(41.059767, 17.293289)"><g><path d="M 2.296875 -3.15625 L 2.296875 -1.734375 L 6 -1.734375 L 6 0 L 0.375 0 L 0.375 -8.046875 L 6 -8.046875 L 6 -6.3125 L 2.296875 -6.3125 L 2.296875 -4.890625 L 5.4375 -4.890625 L 5.4375 -3.15625 Z M 2.296875 -3.15625 "/></g></g></g><g fill="#72569d" fill-opacity="1"><g transform="translate(47.429564, 17.293289)"><g><path d="M 6.546875 0 L 5.96875 -1.125 L 2.9375 -1.125 L 2.359375 0 L 0.125 0 L 4.453125 -8.046875 L 8.78125 0 Z M 5.1875 -2.640625 L 4.453125 -4.046875 L 3.71875 -2.640625 Z M 5.1875 -2.640625 "/></g></g></g><g fill="#72569d" fill-opacity="1"><g transform="translate(56.153898, 17.293289)"><g><path d="M 2.296875 -1.734375 L 6.1875 -1.734375 L 6.1875 0 L 0.375 0 L 0.375 -8.046875 L 2.296875 -8.046875 Z M 2.296875 -1.734375 "/></g></g></g><g fill="#72569d" fill-opacity="1"><g transform="translate(60.304782, 17.293289)"><g><path d="M 6.5 -6.125 L 4.40625 -6.125 L 4.40625 0 L 2.46875 0 L 2.46875 -6.125 L 0.375 -6.125 L 0.375 -8.046875 L 6.5 -8.046875 Z M 6.5 -6.125 "/></g></g></g><g fill="#72569d" fill-opacity="1"><g transform="translate(67.058743, 17.293289)"><g><path d="M 4.734375 -8.046875 L 6.671875 -8.046875 L 6.671875 0 L 4.734375 0 L 4.734375 -3.15625 L 2.296875 -3.15625 L 2.296875 0 L 0.375 0 L 0.375 -8.046875 L 2.296875 -8.046875 L 2.296875 -4.890625 L 4.734375 -4.890625 Z M 4.734375 -8.046875 "/></g></g></g><g fill="#72569d" fill-opacity="1"><g transform="translate(74.097743, 17.293289)"><g/></g></g><g fill="#210d41" fill-opacity="1"><g transform="translate(77.325941, 17.293289)"><g><path d="M 6.703125 -2.125 L 7.75 -1.078125 L 6.796875 -0.109375 L 5.734375 -1.171875 L 5.5 -0.953125 C 5.488281 -0.929688 5.460938 -0.898438 5.421875 -0.859375 C 5.117188 -0.578125 4.804688 -0.363281 4.484375 -0.21875 C 4.109375 -0.0703125 3.722656 0 3.328125 0 C 2.921875 0 2.539062 -0.0703125 2.1875 -0.21875 C 1.851562 -0.351562 1.535156 -0.566406 1.234375 -0.859375 C 0.972656 -1.117188 0.765625 -1.429688 0.609375 -1.796875 C 0.453125 -2.191406 0.375 -2.578125 0.375 -2.953125 C 0.375 -3.328125 0.453125 -3.707031 0.609375 -4.09375 C 0.765625 -4.457031 0.972656 -4.773438 1.234375 -5.046875 C 1.398438 -5.191406 1.523438 -5.296875 1.609375 -5.359375 C 1.484375 -5.515625 1.375 -5.691406 1.28125 -5.890625 C 1.164062 -6.179688 1.109375 -6.472656 1.109375 -6.765625 C 1.109375 -7.066406 1.164062 -7.351562 1.28125 -7.625 C 1.40625 -7.894531 1.566406 -8.132812 1.765625 -8.34375 C 1.984375 -8.550781 2.222656 -8.710938 2.484375 -8.828125 C 2.765625 -8.953125 3.054688 -9.015625 3.359375 -9.015625 C 3.648438 -9.015625 3.941406 -8.953125 4.234375 -8.828125 C 4.515625 -8.703125 4.75 -8.539062 4.9375 -8.34375 C 5.15625 -8.132812 5.316406 -7.894531 5.421875 -7.625 C 5.535156 -7.351562 5.59375 -7.066406 5.59375 -6.765625 C 5.59375 -6.472656 5.535156 -6.179688 5.421875 -5.890625 C 5.296875 -5.609375 5.132812 -5.367188 4.9375 -5.171875 C 4.75 -4.972656 4.515625 -4.816406 4.234375 -4.703125 L 4.203125 -4.6875 L 4.15625 -4.671875 L 5.734375 -3.09375 L 7.125 -4.46875 L 8.09375 -3.5 Z M 3.359375 -7.625 C 3.117188 -7.625 2.910156 -7.546875 2.734375 -7.390625 C 2.566406 -7.210938 2.484375 -7.003906 2.484375 -6.765625 C 2.484375 -6.546875 2.5625 -6.351562 2.71875 -6.1875 C 2.851562 -6.03125 3.03125 -5.929688 3.25 -5.890625 L 3.359375 -5.890625 C 3.597656 -5.890625 3.804688 -5.972656 3.984375 -6.140625 C 4.140625 -6.316406 4.21875 -6.523438 4.21875 -6.765625 C 4.21875 -7.003906 4.140625 -7.210938 3.984375 -7.390625 C 3.804688 -7.546875 3.597656 -7.625 3.359375 -7.625 Z M 1.75 -2.953125 C 1.75 -2.515625 1.898438 -2.140625 2.203125 -1.828125 C 2.515625 -1.523438 2.890625 -1.375 3.328125 -1.375 C 3.960938 -1.375 4.425781 -1.644531 4.71875 -2.1875 L 2.578125 -4.34375 C 2.023438 -4.050781 1.75 -3.585938 1.75 -2.953125 Z M 1.75 -2.953125 "/></g></g></g><g fill="#210d41" fill-opacity="1"><g transform="translate(85.79009, 17.293289)"><g/></g></g><g fill="#210d41" fill-opacity="1"><g transform="translate(89.012169, 17.293289)"><g><path d="M 7.203125 -1.015625 C 6.410156 -0.359375 5.515625 -0.03125 4.515625 -0.03125 C 3.367188 -0.03125 2.394531 -0.4375 1.59375 -1.25 C 0.78125 -2.0625 0.375 -3.035156 0.375 -4.171875 C 0.375 -5.316406 0.78125 -6.296875 1.59375 -7.109375 C 2.394531 -7.921875 3.367188 -8.328125 4.515625 -8.328125 C 5.523438 -8.328125 6.421875 -7.992188 7.203125 -7.328125 L 5.953125 -6.109375 C 5.535156 -6.429688 5.054688 -6.59375 4.515625 -6.59375 C 3.847656 -6.59375 3.28125 -6.359375 2.8125 -5.890625 C 2.34375 -5.410156 2.109375 -4.835938 2.109375 -4.171875 C 2.109375 -3.515625 2.34375 -2.953125 2.8125 -2.484375 C 3.28125 -2.003906 3.847656 -1.765625 4.515625 -1.765625 C 5.054688 -1.765625 5.535156 -1.925781 5.953125 -2.25 Z M 7.203125 -1.015625 "/></g></g></g><g fill="#210d41" fill-opacity="1"><g transform="translate(96.088092, 17.293289)"><g><path d="M 6.546875 0 L 5.96875 -1.125 L 2.9375 -1.125 L 2.359375 0 L 0.125 0 L 4.453125 -8.046875 L 8.78125 0 Z M 5.1875 -2.640625 L 4.453125 -4.046875 L 3.71875 -2.640625 Z M 5.1875 -2.640625 "/></g></g></g><g fill="#210d41" fill-opacity="1"><g transform="translate(104.998372, 17.293289)"><g><path d="M 7.09375 -5.296875 C 7.09375 -4.773438 6.960938 -4.296875 6.703125 -3.859375 C 6.378906 -3.328125 5.925781 -2.957031 5.34375 -2.75 L 7.078125 0 L 4.90625 0 L 3.21875 -2.5625 L 2.296875 -2.5625 L 2.296875 0 L 0.375 0 L 0.375 -8.046875 L 4.21875 -8.046875 C 5.132812 -8.046875 5.863281 -7.75 6.40625 -7.15625 C 6.863281 -6.625 7.09375 -6.003906 7.09375 -5.296875 Z M 2.296875 -6.3125 L 2.296875 -4.296875 L 4.21875 -4.296875 C 4.476562 -4.296875 4.6875 -4.332031 4.84375 -4.40625 C 4.976562 -4.476562 5.070312 -4.550781 5.125 -4.625 C 5.207031 -4.71875 5.269531 -4.832031 5.3125 -4.96875 C 5.34375 -5.082031 5.359375 -5.191406 5.359375 -5.296875 C 5.359375 -5.421875 5.34375 -5.539062 5.3125 -5.65625 C 5.257812 -5.78125 5.191406 -5.894531 5.109375 -6 C 4.921875 -6.207031 4.625 -6.3125 4.21875 -6.3125 Z M 2.296875 -6.3125 "/></g></g></g><g fill="#210d41" fill-opacity="1"><g transform="translate(112.47111, 17.293289)"><g><path d="M 2.296875 -3.15625 L 2.296875 -1.734375 L 6 -1.734375 L 6 0 L 0.375 0 L 0.375 -8.046875 L 6 -8.046875 L 6 -6.3125 L 2.296875 -6.3125 L 2.296875 -4.890625 L 5.4375 -4.890625 L 5.4375 -3.15625 Z M 2.296875 -3.15625 "/></g></g></g><path stroke-linecap="round" transform="matrix(0.734375, 0, 0, 0.734375, 33.997818, 22.178125)" fill="none" stroke-linejoin="miter" d="M 1.497653 1.502128 L 114.088083 1.502128 " stroke="#210d41" stroke-width="3" stroke-opacity="1" stroke-miterlimit="4"/></svg>